<svg t="1774535632638" class="icon" viewBox="0 0 1024 1024" version="1.1" xmlns="http://www.w3.org/2000/svg" p-id="17127" width="200" height="200"><path d="M28.672 367.476364h86.109091v35.979636H28.672z" fill="#6E6E96" p-id="17128"></path><path d="M904.936727 637.672727a131.444364 131.444364 0 0 1-131.072 131.072H245.853091A131.444364 131.444364 0 0 1 114.781091 637.672727V186.973091a131.444364 131.444364 0 0 1 131.072-131.072h528.011636a131.444364 131.444364 0 0 1 131.072 131.072V637.672727z" fill="#E2E2EA" p-id="17129"></path><path d="M830.045091 83.688727c9.588364 18.152727 14.615273 38.353455 14.615273 58.833455v436.503273c0 69.818182-57.157818 126.929455-126.976 126.929454H206.336c-20.48 0-40.680727-4.980364-58.833455-14.568727a127.255273 127.255273 0 0 0 112.360728 68.096H771.258182c69.818182 0 126.929455-57.111273 126.929454-126.929455V196.049455a127.255273 127.255273 0 0 0-68.142545-112.360728z" fill="#6E6E96" opacity=".2" p-id="17130"></path><path d="M173.800727 662.900364V233.984a125.114182 125.114182 0 0 1 124.741818-124.741818h502.458182c20.154182 0 43.194182 2.792727 43.194182 2.792727-14.894545-46.685091-49.896727-57.902545-98.350545-57.902545H243.386182a125.114182 125.114182 0 0 0-124.741818 124.741818v428.869818c0 48.407273 14.708364 78.941091 61.905454 95.511273-8.564364-16.896-6.749091-20.200727-6.749091-40.354909z" fill="#FFFFFF" p-id="17131"></path><path d="M773.864727 786.757818H245.853091A149.224727 149.224727 0 0 1 96.814545 637.672727V186.973091A149.224727 149.224727 0 0 1 245.853091 37.934545h528.011636a149.224727 149.224727 0 0 1 149.085091 149.038546V637.672727a149.271273 149.271273 0 0 1-149.085091 149.085091zM245.853091 73.914182c-62.370909 0-113.058909 50.734545-113.058909 113.105454V637.672727c0 62.370909 50.734545 113.105455 113.105454 113.105455h527.965091c62.370909 0 113.105455-50.734545 113.105455-113.105455V186.973091c0-62.370909-50.734545-113.058909-113.105455-113.058909H245.853091z" fill="#6E6E96" p-id="17132"></path><path d="M215.924364 292.910545a121.716364 121.716364 0 1 0 243.432727 0 121.716364 121.716364 0 0 0-243.432727 0z" fill="#94E5FF" p-id="17133"></path><path d="M337.594182 432.593455a139.869091 139.869091 0 0 1-139.682909-139.68291A139.869091 139.869091 0 0 1 337.594182 153.134545a139.869091 139.869091 0 0 1 139.729454 139.729455 139.869091 139.869091 0 0 1-139.729454 139.682909z m0-243.432728a103.796364 103.796364 0 0 0-103.703273 103.749818c0 57.157818 46.545455 103.703273 103.703273 103.703273 57.204364 0 103.703273-46.545455 103.703273-103.703273 0-57.204364-46.545455-103.749818-103.703273-103.749818z" fill="#6E6E96" p-id="17134"></path><path d="M561.803636 292.910545a121.716364 121.716364 0 1 0 243.432728 0 121.716364 121.716364 0 0 0-243.432728 0z" fill="#94E5FF" p-id="17135"></path><path d="M683.566545 432.593455a139.869091 139.869091 0 0 1-139.729454-139.68291 139.869091 139.869091 0 0 1 139.729454-139.729454 139.869091 139.869091 0 0 1 139.68291 139.729454 139.869091 139.869091 0 0 1-139.68291 139.68291z m0-243.432728a103.796364 103.796364 0 0 0-103.749818 103.749818c0 57.157818 46.545455 103.703273 103.749818 103.703273 57.157818 0 103.703273-46.545455 103.703273-103.703273 0-57.204364-46.545455-103.749818-103.703273-103.749818z m217.646546 178.269091h86.109091v36.026182h-86.109091v-35.979636z" fill="#6E6E96" p-id="17136"></path><path d="M396.148364 768.744727h220.951272v217.925818H396.148364z" fill="#B4B7C9" p-id="17137"></path><path d="M635.112727 1004.683636h-256.930909v-253.952h256.930909v253.952z m-220.951272-36.026181h184.92509v-181.899637H414.161455v181.899637z" fill="#6E6E96" p-id="17138"></path><path d="M337.594182 546.443636h345.972363v104.913455H337.594182z" fill="#BFBFBF" p-id="17139"></path><path d="M683.566545 669.323636H337.594182a18.013091 18.013091 0 0 1-17.966546-17.966545V546.443636c0-9.960727 8.052364-18.013091 17.966546-18.013091h345.972363c9.914182 0 17.966545 8.052364 17.966546 18.013091v104.866909a18.013091 18.013091 0 0 1-17.966546 17.966546z m-327.959272-35.979636H665.6v-68.887273H355.607273v68.887273z" fill="#6E6E96" p-id="17140"></path><path d="M575.394909 669.323636a18.013091 18.013091 0 0 1-17.966545-17.966545V546.443636a18.013091 18.013091 0 0 1 35.979636 0v104.866909a18.013091 18.013091 0 0 1-18.013091 17.966546z m-127.301818 0a18.013091 18.013091 0 0 1-18.013091-17.966545V546.443636a18.013091 18.013091 0 1 1 36.026182 0v104.866909a18.013091 18.013091 0 0 1-18.013091 17.966546z m-51.944727 153.6h220.951272v36.026182H396.148364v-36.026182z m0 72.610909h220.951272v35.979637H396.148364v-35.979637z" fill="#6E6E96" p-id="17141"></path><path d="M543.837091 786.757818h55.249454v181.899637h-55.249454v-181.899637zM339.223273 222.208c51.572364 0 94.766545 35.746909 106.263272 83.781818a109.288727 109.288727 0 1 0-212.57309 0 109.335273 109.335273 0 0 1 106.309818-83.781818z m344.343272 0c51.572364 0 94.766545 35.746909 106.263273 83.781818a109.288727 109.288727 0 1 0-212.573091 0 109.335273 109.335273 0 0 1 106.309818-83.781818z" fill="#6E6E96" opacity=".2" p-id="17142"></path><path d="M355.607273 564.503273H665.6v34.443636H355.607273z" fill="#6E6E96" opacity=".3" p-id="17143"></path><path d="M305.989818 297.984a31.976727 31.976727 0 1 0 64 0 31.976727 31.976727 0 0 0-64 0zM651.543273 297.984a31.976727 31.976727 0 1 0 64 0 31.976727 31.976727 0 0 0-64 0z" fill="#6E6E96" p-id="17144"></path></svg>
